<svg id="_2" data-name="2" xmlns="http://www.w3.org/2000/svg" viewBox="0 0 512 512"><defs><style>.cls-1{fill:#4b4b4b;}</style></defs><title>bar</title><path class="cls-1" d="M490.72,127.14a11.35,11.35,0,0,0-8.39-19H348.21l9.68-21.47a54.45,54.45,0,0,1,32.8-29.38l91-29.51L472.7,0l-91,29.52a83.56,83.56,0,0,0-50.41,45.15l-15.09,33.47H29.68a11.35,11.35,0,0,0-8.4,19l196.6,215.78v90.35l-78.56,58.25A11.35,11.35,0,0,0,146.08,512H365.92a11.36,11.36,0,0,0,6.77-20.48l-78.56-58.25V342.92ZM276,448.11l55.53,41.17H180.47L236,448.11a11.29,11.29,0,0,0,4.6-9.12V338.52a11.45,11.45,0,0,0-3-7.65l-182.25-200H305.93L277.46,194H136.91L256,325.18,375.09,194H309.5L338,130.85H456.62l-182.25,200a11.44,11.44,0,0,0-2.95,7.65V439A11.31,11.31,0,0,0,276,448.11Z"/></svg>