<svg id="_2" data-name="2" xmlns="http://www.w3.org/2000/svg" viewBox="0 0 512 512"><defs><style>.cls-1{fill:#4b4b4b;}</style></defs><title>breakfast</title><path class="cls-1" d="M207.1,23.88V133.09a12.63,12.63,0,0,1-12.62,12.65H191.1a12.64,12.64,0,0,1-12.64-12.65V23.38c0-18-12.11-23.38-23.72-23.38S131,5.38,131,23.38V133.09a12.64,12.64,0,0,1-12.64,12.65H115a12.63,12.63,0,0,1-12.63-12.65V23.88c0-32.22-45.93-31.13-45.93.35v104.3c-.22,57.91,13.62,72.95,36.46,91,18.43,14.53,34.16,22.86,34.16,59V510.67h55.34V278.48c0-36.09,15.74-44.42,34.16-59,22.86-18.05,36.69-33.09,36.47-91V24.23C253-7.25,207.1-8.34,207.1,23.88Z"/><path class="cls-1" d="M385.23,34.75c-11.75,33-45.58,110.16-47.72,178.34-3.31,105.85,61.55,90.19,62.7,159.53V511.31h55.08l.27.69V34.75C455.56-5.44,403.52-16.53,385.23,34.75Z"/></svg>