<svg id="Capa_1" data-name="Capa 1" xmlns="http://www.w3.org/2000/svg" viewBox="0 0 512 512"><defs><style>.cls-1{fill:#3a3a3a;}</style></defs><title>breeze</title><path class="cls-1" d="M426.67,106.67A85.33,85.33,0,0,0,341.33,192H384a42.67,42.67,0,1,1,42.67,42.67H128v42.66H426.67a85.33,85.33,0,0,0,0-170.66Z"/><path class="cls-1" d="M339.78,320H85.33v42.67H339.78a42.67,42.67,0,0,1,42.67,42.66v1.56A41.12,41.12,0,0,1,341.33,448v42.67a83.78,83.78,0,0,0,83.78-83.78v-1.56A85.33,85.33,0,0,0,339.78,320Z"/><rect class="cls-1" y="234.67" width="85.33" height="42.67"/><path class="cls-1" d="M213.08,21.33a84,84,0,0,0-84,84v5.39h42.67v-5.39a41.37,41.37,0,1,1,82.73,0v1.3a42.66,42.66,0,0,1-42.66,42.66H42.67V192H211.78a85.33,85.33,0,0,0,85.33-85.33v-1.3A84,84,0,0,0,213.08,21.33Z"/></svg>