<svg id="圖層_1" data-name="圖層 1" xmlns="http://www.w3.org/2000/svg" viewBox="0 0 433.51 433.51"><defs><style>.cls-1{fill:#3a3a3a;}</style></defs><title>crawling</title><path class="cls-1" d="M76.89,302.39H25.94S0,302.35,0,341.87c1.23,25.52,21.15,29.6,24.7,29.6H128.44s26,0,27.14-31.15c0-1.19.14,0,.15-1.22.05-4.61,0-28.4,0-28.4.06-3.39,2.65-7.23,6.13-7.23H243.1a2.38,2.38,0,0,1,2.33,2.15L264.62,349c7.16,17.74,21.08,30.77,44.33,22.4,22-7.92,23.15-25.36,19.26-37.61L280.5,189.17c-7.17-17.13-25.26-27.12-47.9-27.12H120.73c-60.56,0-111.36,70.55-42.58,138.37a1.29,1.29,0,0,1-1.26,2Z"/><circle class="cls-1" cx="358.35" cy="134.65" r="75.16"/></svg>