<svg id="圖層_1" data-name="圖層 1" xmlns="http://www.w3.org/2000/svg" viewBox="0 0 512 512"><defs><style>.cls-1{fill:#3a3a3a;}</style></defs><title>dog</title><path class="cls-1" d="M199,158.53a54.47,54.47,0,0,0,54.41-54.41V61.69A61.76,61.76,0,0,0,191.74,0H144.6V104.12A54.48,54.48,0,0,0,199,158.53Z"/><path class="cls-1" d="M391.91,242.13l-41.25-17.94a161.67,161.67,0,0,1-80-75.58A84.39,84.39,0,0,1,114.6,104.12V7A63.24,63.24,0,0,0,80.33,63.2a33.23,33.23,0,0,1-33.2,33.2H15a15,15,0,0,0-15,15v24.1a71.31,71.31,0,0,0,71.23,71.23h24.1a17.15,17.15,0,0,1,17.13,17.14v34.88a123.78,123.78,0,0,0,32.14,83.56v86.88l-6.3,12.59a93.12,93.12,0,0,0-9.77,41.4V497a15,15,0,0,0,15,15H192.8V497a79.2,79.2,0,0,1,79.25-79.25h1.08v-1.06a95.44,95.44,0,0,1,95.34-95.33,15,15,0,0,1,0,30,65.4,65.4,0,0,0-65.34,65.33v16.06a15,15,0,0,1-15,15H272.05A49.22,49.22,0,0,0,222.8,497v15H497a15,15,0,0,0,15-15V425.32A199.71,199.71,0,0,0,391.91,242.13Z"/></svg>