<svg id="_2" data-name="2" xmlns="http://www.w3.org/2000/svg" viewBox="0 0 512 512"><defs><style>.cls-1{fill:#4b4b4b;}</style></defs><title>ring</title><path class="cls-1" d="M430.13,238H81.87a28,28,0,0,0,0,56H430.13a28,28,0,0,0,0-56Z"/><path class="cls-1" d="M273.93,50.48a28.5,28.5,0,1,0-35.86,0A171,171,0,0,0,85,220.55H427A171,171,0,0,0,273.93,50.48ZM184.08,192.57H128.51a108.81,108.81,0,0,1,96.1-108Z"/><path class="cls-1" d="M365.37,380.85l-8.58-6.06a36.69,36.69,0,0,1-15.29-25.9l-3.92-35.1c.12-4,.16-9.59-2.65-12.45A14.69,14.69,0,0,0,324.27,297v0c-4.78.06-10.79-.4-15.92,6.41L293.7,329.68c-9.71,16.18-22.19,16.16-35.22,11.67L156.32,296.5A13.48,13.48,0,0,0,141,301.33l-.13.2a13.43,13.43,0,0,0,2.45,18.36L261,417.79l66.2,33.27-10.94,20.12,73,40.82L448,404l-73-40.81Zm57.45,30.44L381.9,486.51l-40.47-22.62,40.92-75.22Z"/><circle class="cls-1" cx="395.52" cy="421.43" r="10.11"/></svg>