<svg id="Capa_1" data-name="Capa 1" xmlns="http://www.w3.org/2000/svg" viewBox="0 0 498.76 498.76"><defs><style>.cls-1{fill:#3a3a3a;}</style></defs><title>smoke</title><rect class="cls-1" y="177.78" width="53.78" height="143.2"/><polygon class="cls-1" points="270.97 177.78 79.26 177.78 79.26 320.98 127.77 320.98 270.97 177.78"/><polygon class="cls-1" points="471.24 177.78 392.14 177.78 248.93 320.98 471.24 320.98 471.24 177.78"/><path class="cls-1" d="M91.84,113.67c1.28.11,2.33.33,3.5.47.65.09,1,.09,1.89.25l2.55.4,2.55.4,2.28.33,6.29.8a88.75,88.75,0,0,0,26.33-1.64,72.33,72.33,0,0,0,24.62-10.36,68.51,68.51,0,0,0,29.93-63.88,42.08,42.08,0,0,0-2.26-10.52s-2.48,3.15-6.55,8A151.94,151.94,0,0,1,166.1,55.13a73.11,73.11,0,0,1-11.22,8,56.1,56.1,0,0,1-12.17,5.3c-8.26,2.45-17.25,3-27.78,2.16l-4-.45-5.42-.56L103,69.33c-.79-.08-2.18-.11-3.24-.16-2.24,0-4.59-.23-6.71-.11a79.56,79.56,0,0,0-25.47,4.55,60.87,60.87,0,0,0-22,13.67,51.72,51.72,0,0,0-12.29,18.87A52.91,52.91,0,0,0,30,123.32,52.25,52.25,0,0,0,31.32,136a42.55,42.55,0,0,0,2.48,7.63,22.42,22.42,0,0,0,1.28,2.55s1.92-3.55,5.36-8.73,8.63-12,15.2-16.85a34.27,34.27,0,0,1,10.42-5.42,45.38,45.38,0,0,1,11.64-2A87.45,87.45,0,0,1,91.84,113.67Z"/><polygon class="cls-1" points="482.53 26.79 466.31 10.56 466.31 10.56 299.09 177.78 155.89 320.98 21.14 455.74 37.37 471.97 53.59 488.2 53.59 488.19 220.81 320.98 364.01 177.78 498.76 43.02 482.53 26.79"/></svg>